<?xml version="1.0" encoding="utf-8"?>
<svg viewBox="0 0 120 120" xmlns="http://www.w3.org/2000/svg">
  <rect fill="#6C63AC" width="120" height="120"/>
  <polygon fill="#A093FF" fill-opacity="0.14" points="157.97 0 157.97 60 127.97 30 97.97 0 37.97 0 37.97 0 97.97 60 37.97 120 97.97 120 127.97 90 157.97 60 157.97 0"/>
  <path style="stroke: rgb(0, 0, 0); fill: rgb(255, 255, 255); stroke-opacity: 0;" d="M -25.081 46.355 C -21.688 35.184 -10.352 30.799 8.927 33.198 C 35.965 36.563 62.444 36.397 88.361 32.702 C 102.039 30.752 115.112 26.284 127.582 19.297 C 132.82 16.362 132.075 10.405 125.348 1.425 C 95.814 -38.001 46.664 -34.691 -22.102 11.354 C -31.701 17.781 -32.694 29.448 -25.081 46.355 Z"/>
</svg>